<?xml version="1.0" encoding="UTF-8" standalone="no"?>
<svg
   xmlns:dc="http://purl.org/dc/elements/1.1/"
   xmlns:cc="http://creativecommons.org/ns#"
   xmlns:rdf="http://www.w3.org/1999/02/22-rdf-syntax-ns#"
   xmlns:svg="http://www.w3.org/2000/svg"
   xmlns="http://www.w3.org/2000/svg"
   xmlns:sodipodi="http://sodipodi.sourceforge.net/DTD/sodipodi-0.dtd"
   xmlns:inkscape="http://www.inkscape.org/namespaces/inkscape"
   width="70"
   height="30"
   viewBox="0 0 70 30"
   version="1.1"
   id="svg236"
   sodipodi:docname="logo.svg"
   inkscape:version="0.92.5 (2060ec1f9f, 2020-04-08)"
   style="fill:none">
  <metadata
     id="metadata242">
    <rdf:RDF>
      <cc:Work
         rdf:about="">
        <dc:format>image/svg+xml</dc:format>
        <dc:type
           rdf:resource="http://purl.org/dc/dcmitype/StillImage" />
        <dc:title></dc:title>
      </cc:Work>
    </rdf:RDF>
  </metadata>
  <defs
     id="defs240" />
  <sodipodi:namedview
     pagecolor="#ffffff"
     bordercolor="#666666"
     borderopacity="1"
     objecttolerance="10"
     gridtolerance="10"
     guidetolerance="10"
     inkscape:pageopacity="0"
     inkscape:pageshadow="2"
     inkscape:window-width="2560"
     inkscape:window-height="1299"
     id="namedview238"
     showgrid="false"
     inkscape:zoom="14.178091"
     inkscape:cx="23.702935"
     inkscape:cy="18.001841"
     inkscape:window-x="0"
     inkscape:window-y="33"
     inkscape:window-maximized="1"
     inkscape:current-layer="svg236" />
  <path
     style="fill:#ffffff;fill-opacity:0.50196081;stroke-width:0.16328637"
     d="M 6.9353326,24.342566 C 4.5034056,23.72277 2.2293876,21.954448 1.0996946,19.804647 0.54017462,18.739874 0.05073462,16.991063 0.04471262,16.035132 l -0.0029,-0.45043 8.93674598,0.04221 8.9367454,0.04221 -0.04574,0.734789 c -0.207116,3.324859 -2.588999,6.429798 -5.845832,7.620479 -1.381734,0.505157 -3.7689704,0.654425 -5.0883694,0.318164 z M 2.9799786,13.638775 c -1.191726,-0.362508 -2.26092898,-1.320101 -2.73347698,-2.44814 -0.370651,-0.884827 -0.316314,-2.4539091 0.115898,-3.346738 0.445888,-0.9210974 1.43609898,-1.7904962 2.42182998,-2.1263685 0.929653,-0.3167668 1.548402,-0.3200248 2.575643,-0.013605 3.734038,1.1140242 3.797672,6.5750025 0.09138,7.8378805 -0.774446,0.26388 -1.791269,0.30376 -2.471234,0.09693 z m 2.111245,-2.882746 c 0.698794,-0.587994 0.70939,-1.5181184 0.02513,-2.2024116 -0.602516,-0.6025113 -1.279461,-0.6267652 -1.941649,-0.06956 -0.625347,0.5261901 -0.762909,1.0900785 -0.434671,1.7817796 0.458819,0.96688 1.521433,1.188417 2.351223,0.490196 z M 10.816759,12.727932 9.9278246,11.82781 11.025154,10.730474 12.122493,9.633137 11.024683,8.5268463 9.9268736,7.4205583 10.861374,6.4860496 l 0.934509,-0.9345075 1.106289,1.0978144 1.106288,1.09781 1.099261,-1.0992478 1.099249,-1.0992536 0.93594,0.9359465 0.935948,0.9359467 -1.09781,1.106288 -1.097819,1.1062907 1.099261,1.099252 1.099249,1.099253 -0.935949,0.935944 -0.935939,0.935946 -1.107909,-1.099411 -1.107897,-1.099411 -1.052236,1.06167 c -0.578726,0.583922 -1.093602,1.061674 -1.144175,1.061674 -0.05054,0 -0.491961,-0.405055 -0.980875,-0.900122 z"
     id="path265"
     inkscape:connector-curvature="0"
     sodipodi:nodetypes="ccccccccccccccccccccccccsccccccccccccccccccccccss" />
  <path
     style="fill:#ffffff;fill-opacity:0.50196081;stroke-width:0.15197015"
     d="M 36.237584,19.296289 C 36.45379,18.815682 36.76106,18.125237 36.9204,17.761967 l 0.289715,-0.66049 -0.705877,-1.619062 c -0.38823,-0.890484 -0.934441,-2.152152 -1.213807,-2.803708 l -0.507929,-1.184647 1.003582,0.04487 1.00358,0.04487 0.627271,1.62259 c 0.345007,0.892424 0.668917,1.663514 0.719794,1.713531 0.05089,0.05002 0.35141,-0.645956 0.667848,-1.546603 0.31643,-0.900651 0.623681,-1.692362 0.682774,-1.75936 0.05911,-0.067 0.517975,-0.101192 1.019748,-0.07599 l 0.912311,0.04583 -0.711159,1.671673 c -0.391137,0.919418 -1.210462,2.85134 -1.820733,4.293156 l -1.109573,2.621495 h -0.966736 -0.966726 z m 8.06891,-2.098235 c -3.035502,-0.968119 -3.191752,-5.88717 -0.22634,-7.125892 0.895424,-0.37404 2.346643,-0.3078021 3.263209,0.148943 0.800416,0.398863 1.465234,1.177741 1.649579,1.932585 l 0.102057,0.417918 h -0.899717 c -0.82076,0 -0.928899,-0.03947 -1.232288,-0.449825 -0.46935,-0.634831 -1.315526,-0.867245 -2.04611,-0.561987 -0.851413,0.355743 -1.201966,1.032492 -1.13655,2.194154 0.04712,0.836616 0.114118,1.014765 0.54306,1.443715 0.418665,0.418661 0.59744,0.489331 1.237822,0.489331 0.638605,0 0.823301,-0.07251 1.258063,-0.493902 0.453874,-0.439907 0.604324,-0.493904 1.376178,-0.493904 1.036758,0 1.073683,0.114359 0.372684,1.154227 -0.863841,1.281448 -2.67148,1.851795 -4.261651,1.344637 z m 12.207648,0.05818 c -1.252475,-0.359353 -1.983689,-1.42076 -1.977831,-2.870963 0.0044,-1.131108 0.423571,-1.99352 1.226797,-2.525065 0.543664,-0.359785 0.804567,-0.427634 1.645602,-0.427967 1.293535,-4.58e-4 2.020729,0.351068 2.532547,1.224415 0.222374,0.379452 0.395413,0.928634 0.412738,1.309962 l 0.02987,0.656599 -2.098452,0.04234 c -2.089366,0.04215 -2.098011,0.04379 -1.995634,0.379926 0.183547,0.602613 0.537411,0.86948 1.152928,0.86948 0.418455,0 0.636624,-0.08579 0.772852,-0.303941 0.156975,-0.251351 0.354404,-0.303938 1.141067,-0.303938 0.523189,0 0.951251,0.03759 0.951251,0.08353 0,0.252966 -0.506477,0.995783 -0.911085,1.336241 -0.771582,0.649243 -1.804022,0.838846 -2.882618,0.52938 z m 2.122029,-3.551746 c 0,-0.361383 -0.702558,-0.980902 -1.112368,-0.980902 -0.447602,0 -1.100982,0.490289 -1.21026,0.908155 -0.07576,0.289675 -0.01043,0.307608 1.121092,0.307608 0.98243,0 1.201537,-0.04282 1.201536,-0.234861 z m -34.497223,0.690764 v -2.887433 h 0.911819 c 0.879647,0 0.911823,0.01389 0.911823,0.393434 v 0.393435 l 0.460386,-0.38739 c 0.25321,-0.213059 0.700673,-0.432465 0.994359,-0.48756 0.678692,-0.127326 1.77657,0.27439 2.100329,0.768511 l 0.236379,0.360766 0.508614,-0.508613 c 1.207352,-1.207349 3.297368,-0.667166 3.752057,0.969755 0.0839,0.302093 0.152954,1.386994 0.153418,2.410894 l 8.76e-4,1.861632 h -0.91182 -0.911821 v -1.888595 c 0,-1.859276 -0.0062,-1.893488 -0.400422,-2.203568 -0.531175,-0.417822 -1.050254,-0.397816 -1.506116,0.05805 -0.354756,0.354752 -0.373015,0.462646 -0.373015,2.203565 v 1.830544 H 29.153991 28.24217 v -1.830548 c 0,-1.740919 -0.01826,-1.848813 -0.373018,-2.203565 -0.455863,-0.45586 -0.974938,-0.475866 -1.506111,-0.05805 -0.394205,0.31008 -0.400422,0.344292 -0.400422,2.203568 v 1.888595 h -0.911786 -0.911822 z m 25.986891,0 v -2.887433 h 0.91183 0.91182 v 0.46307 0.463073 l 0.569887,-0.448613 c 0.313433,-0.246741 0.79557,-0.4955 1.071396,-0.552804 l 0.50151,-0.104183 -0.04563,0.963561 -0.04564,0.963558 -0.742829,0.0853 c -1.142961,0.131244 -1.308764,0.430628 -1.308764,2.363061 v 1.578851 h -0.911817 -0.91183 z m 11.49833,0.166398 c -0.389649,-1.496569 -0.708444,-2.795913 -0.708444,-2.887434 0,-0.100305 0.330812,-0.166397 0.832943,-0.166397 0.740009,0 0.841394,0.03814 0.908764,0.341933 0.04169,0.188063 0.215858,1.09038 0.387029,2.00515 0.171166,0.914771 0.333754,1.685766 0.36131,1.713323 0.02759,0.02755 0.282113,-0.857665 0.565681,-1.96716 l 0.515577,-2.017263 h 0.986266 0.986275 l 0.547517,2.051597 c 0.5961,2.233666 0.589366,2.233139 0.970152,0.07598 0.431601,-2.444973 0.298387,-2.203567 1.215961,-2.203567 H 70 L 69.479071,13.5974 c -0.28651,1.149274 -0.62361,2.451679 -0.749107,2.894234 L 68.501792,17.29628 67.497869,17.2515 66.493946,17.20671 66.006248,15.417596 c -0.268224,-0.984012 -0.521769,-1.823197 -0.563432,-1.864856 -0.0417,-0.04166 -0.305832,0.780543 -0.587053,1.827107 l -0.51131,1.902849 h -1.005922 -1.005919 z"
     id="path265-6"
     inkscape:connector-curvature="0"
     sodipodi:nodetypes="ccccccccccccccsccccccccccsccccscsccccccccccccscssccccscscccsscccccccccccsccscccscssccccccccccccccccscccccsscccccccccscsccccccccccc" />
</svg>
