<?xml version="1.0" encoding="UTF-8" standalone="no"?>
<svg
   xmlns:dc="http://purl.org/dc/elements/1.1/"
   xmlns:cc="http://creativecommons.org/ns#"
   xmlns:rdf="http://www.w3.org/1999/02/22-rdf-syntax-ns#"
   xmlns:svg="http://www.w3.org/2000/svg"
   xmlns="http://www.w3.org/2000/svg"
   xmlns:sodipodi="http://sodipodi.sourceforge.net/DTD/sodipodi-0.dtd"
   xmlns:inkscape="http://www.inkscape.org/namespaces/inkscape"
   role="img"
   viewBox="0 0 24 24"
   version="1.1"
   id="svg1108"
   sodipodi:docname="mycrew.svg"
   inkscape:version="0.92.5 (2060ec1f9f, 2020-04-08)">
  <metadata
     id="metadata1114">
    <rdf:RDF>
      <cc:Work
         rdf:about="">
        <dc:format>image/svg+xml</dc:format>
        <dc:type
           rdf:resource="http://purl.org/dc/dcmitype/StillImage" />
        <dc:title>Google Drive icon</dc:title>
      </cc:Work>
    </rdf:RDF>
  </metadata>
  <defs
     id="defs1112" />
  <sodipodi:namedview
     pagecolor="#ffffff"
     bordercolor="#666666"
     borderopacity="1"
     objecttolerance="10"
     gridtolerance="10"
     guidetolerance="10"
     inkscape:pageopacity="0"
     inkscape:pageshadow="2"
     inkscape:window-width="2560"
     inkscape:window-height="1299"
     id="namedview1110"
     showgrid="false"
     inkscape:zoom="8.1832879"
     inkscape:cx="-24.53174"
     inkscape:cy="-2.233554"
     inkscape:window-x="0"
     inkscape:window-y="33"
     inkscape:window-maximized="1"
     inkscape:current-layer="svg1108" />
  <title
     id="title1104">Google Drive icon</title>
  <path
     style="fill-opacity:1;stroke-width:0.16977991"
     d="m 9.8107368,21.714097 c -2.528648,-0.644445 -4.893096,-2.483091 -6.067709,-4.718384 -0.581773,-1.107116 -1.090683,-2.925474 -1.09694,-3.91942 l -0.0029,-0.468343 9.2921402,0.04389 9.292139,0.04389 -0.0476,0.76401 c -0.2154,3.457082 -2.692006,6.685496 -6.078354,7.923528 -1.436685,0.525247 -3.918853,0.68045 -5.2907282,0.330819 z M 5.6980818,10.584639 C 4.4589588,10.207714 3.3472378,9.2120382 2.8559048,8.0391382 2.4705108,7.1191256 2.5270048,5.487644 2.9764058,4.5593086 c 0.463626,-0.9577267 1.49321,-1.8617003 2.518144,-2.2109292 0.966628,-0.3293645 1.609978,-0.3327516 2.678069,-0.014085 3.8825352,1.1583255 3.9487042,6.8364755 0.09497,8.1495776 -0.805244,0.274374 -1.862498,0.315839 -2.569508,0.100775 z m 2.195209,-2.9973891 c 0.726581,-0.6113759 0.737598,-1.57849 0.02609,-2.2899969 -0.626472,-0.6264728 -1.330333,-0.65169 -2.018862,-0.072331 -0.65021,0.5471147 -0.793243,1.1334285 -0.451955,1.8526365 0.47706,1.0053299 1.581941,1.235679 2.444729,0.5096917 z M 13.846515,9.6375715 12.922224,8.7016547 14.063201,7.5606799 15.204176,6.4197026 14.062707,5.2694175 12.921236,4.119135 l 0.97167,-0.9716726 0.971671,-0.97167 1.150285,1.1414712 1.150285,1.1414685 1.142966,-1.1429634 1.142966,-1.1429689 0.973168,0.9731675 0.973166,0.9731677 -1.141471,1.1502825 -1.14147,1.1502851 1.142965,1.1429663 1.142967,1.1429684 -0.973165,0.9731645 -0.973168,0.9731692 -1.151958,-1.1431328 -1.151961,-1.1431314 -1.094077,1.1038896 c -0.601744,0.6071426 -1.137099,1.1038926 -1.189675,1.1038926 -0.05258,0 -0.511525,-0.421163 -1.019885,-0.9359175 z"
     id="path265"
     inkscape:connector-curvature="0"
     sodipodi:nodetypes="csccccsccccccccsccscccssccccccccccccccccccccccss" />
</svg>
